<?xml version="1.0" encoding="iso-8859-1"?>
<!-- Generator: Adobe Illustrator 19.0.0, SVG Export Plug-In . SVG Version: 6.00 Build 0)  -->
<svg version="1.1" id="Layer_1" xmlns="http://www.w3.org/2000/svg" xmlns:xlink="http://www.w3.org/1999/xlink" x="0px" y="0px"
	 viewBox="0 0 438.2 438.2" style="enable-background:new 0 0 438.2 438.2;" xml:space="preserve">
<g>
	<g>
		<g>
			<path d="M270.742,103.283c-63.859,0-115.813,51.953-115.813,115.813c0,63.859,51.953,115.813,115.813,115.813
				s115.813-51.953,115.813-115.813C386.555,155.237,334.602,103.283,270.742,103.283z M323.007,305.274
				c-38.469-10.881-65.083-45.883-65.083-86.174c0-6.106,0.617-12.206,1.834-18.131c0.833-4.058-1.78-8.022-5.838-8.856
				c-4.059-0.834-8.022,1.78-8.855,5.838c-1.42,6.916-2.141,14.031-2.141,21.149c0,41.642,24.362,78.438,61.115,95.15
				c-10.429,3.66-21.634,5.658-33.298,5.658c-55.588,0-100.813-45.224-100.813-100.813c0-55.588,45.224-100.813,100.813-100.813
				c11.688,0,22.915,2.006,33.362,5.681c-14.945,6.848-28.268,17.192-38.574,30.182c-2.574,3.245-2.03,7.963,1.215,10.537
				c1.379,1.094,3.023,1.625,4.656,1.625c2.21,0,4.4-0.973,5.881-2.839c11.659-14.698,27.808-25.458,45.723-30.552
				c29.085,17.704,48.549,49.711,48.549,86.179C371.555,255.563,352.091,287.57,323.007,305.274z"/>
			<path d="M253.073,174.129c-1.27,3.065-0.311,6.702,2.283,8.759c2.408,1.91,5.849,2.116,8.483,0.552
				c3.144-1.869,4.512-5.928,3.084-9.311C264.489,168.047,255.555,168.141,253.073,174.129z"/>
			<path d="M266.923,174.129C267.113,174.579,266.743,173.679,266.923,174.129L266.923,174.129z"/>
			<path d="M270.745,348.358c-4.142,0-7.5,3.358-7.5,7.5V430.7c0,4.142,3.358,7.5,7.5,7.5c4.142,0,7.5-3.358,7.5-7.5v-74.842
				C278.245,351.716,274.887,348.358,270.745,348.358z"/>
			<path d="M270.745,89.842c4.142,0,7.5-3.358,7.5-7.5V7.5c0-4.142-3.358-7.5-7.5-7.5c-4.142,0-7.5,3.358-7.5,7.5v74.842
				C263.245,86.484,266.603,89.842,270.745,89.842z"/>
			<path d="M168.739,310.499l-52.921,52.921c-2.929,2.929-2.929,7.677,0,10.606c1.464,1.465,3.384,2.197,5.303,2.197
				c1.919,0,3.839-0.732,5.303-2.197l52.921-52.921c2.929-2.929,2.929-7.677,0-10.606
				C176.418,307.57,171.669,307.57,168.739,310.499z"/>
			<path d="M141.487,219.1c0-4.142-3.358-7.5-7.5-7.5H59.145c-4.142,0-7.5,3.358-7.5,7.5c0,4.142,3.358,7.5,7.5,7.5h74.842
				C138.129,226.6,141.487,223.242,141.487,219.1z"/>
			<path d="M168.739,127.701c1.464,1.465,3.384,2.197,5.303,2.197s3.839-0.732,5.303-2.197c2.929-2.929,2.929-7.677,0-10.606
				l-52.921-52.921c-2.929-2.929-7.678-2.929-10.606,0c-2.929,2.929-2.929,7.677,0,10.606L168.739,127.701z"/>
			<path d="M330.023,342.611c-1.585-3.827-5.972-5.644-9.799-4.06c-3.827,1.585-5.645,5.972-4.06,9.799l7.719,18.639
				c1.196,2.889,3.989,4.633,6.932,4.633c0.956,0,1.928-0.184,2.867-0.573c3.827-1.585,5.645-5.972,4.06-9.799L330.023,342.611z"/>
			<path d="M211.468,95.589c1.196,2.889,3.989,4.632,6.932,4.632c0.956,0,1.928-0.184,2.867-0.573
				c3.827-1.585,5.645-5.972,4.06-9.799l-7.719-18.639c-1.585-3.827-5.972-5.645-9.799-4.06c-3.827,1.585-5.645,5.972-4.06,9.799
				L211.468,95.589z"/>
			<path d="M221.267,338.551c-3.827-1.584-8.214,0.233-9.799,4.06l-7.719,18.639c-1.585,3.827,0.233,8.214,4.06,9.799
				c0.938,0.389,1.91,0.573,2.867,0.573c2.943,0,5.736-1.744,6.932-4.633l7.719-18.639
				C226.911,344.523,225.093,340.136,221.267,338.551z"/>
			<path d="M320.224,99.649c0.938,0.389,1.91,0.573,2.867,0.573c2.943,0,5.736-1.744,6.932-4.632l7.719-18.639
				c1.585-3.827-0.233-8.214-4.06-9.799c-3.825-1.584-8.214,0.233-9.799,4.06l-7.719,18.639
				C314.579,93.677,316.397,98.064,320.224,99.649z"/>
			<path d="M141.495,264.519l-18.639,7.719c-3.827,1.585-5.645,5.972-4.06,9.799c1.196,2.889,3.989,4.632,6.932,4.632
				c0.956,0,1.928-0.184,2.867-0.573l18.639-7.719c3.827-1.585,5.645-5.972,4.06-9.799S145.323,262.934,141.495,264.519z"/>
			<path d="M147.234,159.823l-18.639-7.719c-3.825-1.583-8.214,0.233-9.799,4.06c-1.585,3.827,0.233,8.214,4.06,9.799l18.639,7.719
				c0.938,0.388,1.91,0.573,2.867,0.573c2.943,0,5.736-1.744,6.932-4.632C152.879,165.794,151.061,161.407,147.234,159.823z"/>
		</g>
	</g>
</g>
<g>
</g>
<g>
</g>
<g>
</g>
<g>
</g>
<g>
</g>
<g>
</g>
<g>
</g>
<g>
</g>
<g>
</g>
<g>
</g>
<g>
</g>
<g>
</g>
<g>
</g>
<g>
</g>
<g>
</g>
</svg>
