<?xml version="1.0" encoding="iso-8859-1"?>
<!-- Generator: Adobe Illustrator 19.0.0, SVG Export Plug-In . SVG Version: 6.00 Build 0)  -->
<svg version="1.1" id="Layer_1" xmlns="http://www.w3.org/2000/svg" xmlns:xlink="http://www.w3.org/1999/xlink" x="0px" y="0px"
	 viewBox="0 0 386.622 386.622" style="enable-background:new 0 0 386.622 386.622;" xml:space="preserve">
<g>
	<g>
		<g>
			<path d="M345.102,131.663c-0.513-36.41-30.291-65.869-66.821-65.869c-8.241,0-16.417,1.536-24.064,4.488
				c-5.885-17.846-16.906-33.862-31.644-45.778c-17.406-14.072-39.341-21.822-61.765-21.822c-52.788,0-95.993,41.82-98.224,94.069
				c-16.799,4.977-31.924,15.034-43.06,28.741C6.934,140.988,0,160.538,0,180.54c0,48.173,39.191,87.365,87.365,87.365h227.864
				c39.366,0,71.393-32.027,71.393-71.391C386.622,168.638,370.144,143.227,345.102,131.663z M315.23,252.905H87.365
				C47.463,252.905,15,220.442,15,180.54c0-16.568,5.741-32.759,16.167-45.59c10.282-12.654,24.654-21.553,40.47-25.057
				c3.479-0.771,5.936-3.885,5.876-7.448l-0.005-0.288c-0.007-0.387-0.014-0.774-0.014-1.162c0-45.939,37.374-83.314,83.314-83.314
				c19.278,0,37.375,6.393,52.334,18.488c14.537,11.752,24.805,28.201,28.914,46.315c0.523,2.307,2.104,4.231,4.265,5.193
				c2.16,0.962,4.649,0.847,6.712-0.308c7.686-4.302,16.416-6.576,25.248-6.576c28.578,0,51.828,23.25,51.828,51.828
				c0,1.026-0.042,2.132-0.131,3.484c-0.22,3.311,1.762,6.373,4.873,7.528c21.994,8.164,36.771,29.416,36.771,52.88
				C371.622,227.608,346.325,252.905,315.23,252.905z"/>
			<path d="M91.799,331.519c-5.207,4.426-1.912,13.201,4.865,13.201c3.539,0,6.659-2.562,7.361-6.03
				C105.41,331.839,97.084,327.026,91.799,331.519z"/>
			<path d="M156.456,331.333c-2.605,2.039-3.555,5.707-2.282,8.757c1.158,2.774,3.916,4.63,6.93,4.63
				c3.475,0,6.535-2.475,7.308-5.851C169.963,332.102,161.875,327.092,156.456,331.333z"/>
			<path d="M221.112,331.157c-2.661,1.915-3.764,5.51-2.651,8.592c1.064,2.948,3.922,4.971,7.063,4.971
				c3.508,0,6.612-2.533,7.338-5.956C234.256,332.192,226.562,327.233,221.112,331.157z"/>
			<path d="M285.104,331.505c-2.508,2.124-3.331,5.747-2.005,8.753c1.182,2.68,3.927,4.462,6.855,4.462
				c3.676,0,6.867-2.77,7.416-6.397C298.385,331.607,290.244,327.152,285.104,331.505z"/>
			<path d="M64.454,305.5c3.527,0,6.672-2.561,7.36-6.03c0.613-3.087-0.837-6.36-3.565-7.941c-2.728-1.581-6.258-1.287-8.66,0.77
				C54.417,296.727,57.638,305.5,64.454,305.5z"/>
			<path d="M124.364,292.021c-2.64,2.005-3.671,5.62-2.459,8.707c1.115,2.84,3.92,4.772,6.979,4.772c3.398,0,6.43-2.374,7.275-5.659
				C137.887,293.118,129.86,287.847,124.364,292.021z"/>
			<path d="M188.328,292.397c-2.21,1.953-3.063,5.158-2.135,7.955c1.009,3.039,3.914,5.148,7.121,5.148
				c3.616,0,6.746-2.672,7.383-6.214C201.929,292.427,193.508,287.82,188.328,292.397z"/>
			<path d="M252.979,292.205c-2.523,2.077-3.415,5.639-2.175,8.665c1.134,2.768,3.945,4.63,6.93,4.63
				c3.462,0,6.549-2.475,7.311-5.851C266.582,292.841,258.363,287.771,252.979,292.205z"/>
			<path d="M322.164,305.5c3.622,0,6.792-2.698,7.395-6.261c0.486-2.872-0.807-5.86-3.235-7.469
				c-2.855-1.892-6.725-1.608-9.25,0.725C312.178,297.02,315.474,305.5,322.164,305.5z"/>
			<path d="M59.703,370.646c-5.347,4.35-2.111,13.294,4.751,13.294c3.469,0,6.558-2.467,7.319-5.853
				C73.309,371.251,65.11,366.247,59.703,370.646z"/>
			<path d="M124.482,370.377c-2.667,1.922-3.762,5.504-2.651,8.591c1.061,2.947,3.918,4.972,7.053,4.972
				c3.538,0,6.649-2.568,7.36-6.03C137.597,371.318,129.859,366.502,124.482,370.377z"/>
			<path d="M197.163,370.014c-2.783-1.667-6.406-1.324-8.835,0.823c-5.073,4.483-1.744,13.103,4.986,13.103
				c3.614,0,6.749-2.671,7.383-6.213C201.236,374.709,199.783,371.584,197.163,370.014z"/>
			<path d="M261.32,369.866c-2.796-1.511-6.333-1.097-8.676,1.069c-4.902,4.53-1.583,13.005,5.09,13.005
				c3.503,0,6.612-2.533,7.338-5.956C265.749,374.791,264.188,371.416,261.32,369.866z"/>
			<path d="M317.294,370.739c-5.193,4.423-1.932,13.201,4.87,13.201c3.537,0,6.656-2.566,7.35-6.03
				C330.882,371.081,322.596,366.223,317.294,370.739z"/>
		</g>
	</g>
</g>
<g>
</g>
<g>
</g>
<g>
</g>
<g>
</g>
<g>
</g>
<g>
</g>
<g>
</g>
<g>
</g>
<g>
</g>
<g>
</g>
<g>
</g>
<g>
</g>
<g>
</g>
<g>
</g>
<g>
</g>
</svg>
