<?xml version="1.0" encoding="iso-8859-1"?>
<!-- Generator: Adobe Illustrator 19.0.0, SVG Export Plug-In . SVG Version: 6.00 Build 0)  -->
<svg version="1.1" id="Layer_1" xmlns="http://www.w3.org/2000/svg" xmlns:xlink="http://www.w3.org/1999/xlink" x="0px" y="0px"
	 viewBox="0 0 388.636 388.636" style="enable-background:new 0 0 388.636 388.636;" xml:space="preserve">
<g>
	<g>
		<g>
			<path d="M54.609,0c-20.678,0-37.5,16.823-37.5,37.5S33.931,75,54.609,75s37.5-16.823,37.5-37.5S75.287,0,54.609,0z M54.609,60
				c-12.407,0-22.5-10.094-22.5-22.5S42.202,15,54.609,15s22.5,10.094,22.5,22.5S67.016,60,54.609,60z"/>
			<path d="M364.027,29.425H133.816c-4.142,0-7.5,3.358-7.5,7.5v344.211c0,4.142,3.358,7.5,7.5,7.5h30.009
				c4.142,0,7.5-3.358,7.5-7.5V204.801h148.702c4.143,0,7.5-3.358,7.5-7.5v-30.009c0-4.142-3.357-7.5-7.5-7.5H171.325V74.434h20.702
				c4.142,0,7.5-3.358,7.5-7.5c0-4.142-3.358-7.5-7.5-7.5h-28.202c-4.142,0-7.5,3.358-7.5,7.5v100.357c0,4.142,3.358,7.5,7.5,7.5
				h148.702V189.8H163.825c-4.142,0-7.5,3.358-7.5,7.5v176.335h-15.009V44.425h215.211v15.009H235.36c-4.143,0-7.5,3.358-7.5,7.5
				c0,4.142,3.357,7.5,7.5,7.5h128.667c4.143,0,7.5-3.358,7.5-7.5V36.925C371.527,32.783,368.17,29.425,364.027,29.425z"/>
			<path d="M206.05,66.005c-0.394,3.112,1.281,6.214,4.071,7.62c2.808,1.415,6.299,0.907,8.566-1.279
				c2.364-2.279,2.961-5.925,1.469-8.841c-1.496-2.927-4.883-4.575-8.112-3.929c0.353-0.07,2-0.405-0.013,0.001
				c-0.072,0.015-0.062,0.013-0.011,0.003C208.888,60.236,206.454,62.822,206.05,66.005z"/>
		</g>
	</g>
</g>
<g>
</g>
<g>
</g>
<g>
</g>
<g>
</g>
<g>
</g>
<g>
</g>
<g>
</g>
<g>
</g>
<g>
</g>
<g>
</g>
<g>
</g>
<g>
</g>
<g>
</g>
<g>
</g>
<g>
</g>
</svg>
