<?xml version="1.0" encoding="iso-8859-1"?>
<!-- Generator: Adobe Illustrator 19.0.0, SVG Export Plug-In . SVG Version: 6.00 Build 0)  -->
<svg version="1.1" id="Layer_1" xmlns="http://www.w3.org/2000/svg" xmlns:xlink="http://www.w3.org/1999/xlink" x="0px" y="0px"
	 viewBox="0 0 408.001 408.001" style="enable-background:new 0 0 408.001 408.001;" xml:space="preserve">
<g>
	<g>
		<g>
			<path d="M227.265,393.001h-18.203c-4.143,0-7.5,3.358-7.5,7.5c0,4.142,3.357,7.5,7.5,7.5h18.203c4.143,0,7.5-3.358,7.5-7.5
				C234.765,396.359,231.407,393.001,227.265,393.001z"/>
			<path d="M255.76,349.335h-60.967c-4.143,0-7.5,3.358-7.5,7.5c0,4.142,3.357,7.5,7.5,7.5h60.967c4.143,0,7.5-3.358,7.5-7.5
				C263.26,352.693,259.903,349.335,255.76,349.335z"/>
			<path d="M310.62,305.668H193.379c-4.143,0-7.5,3.358-7.5,7.5c0,4.142,3.357,7.5,7.5,7.5H310.62c4.143,0,7.5-3.358,7.5-7.5
				C318.12,309.026,314.763,305.668,310.62,305.668z"/>
			<path d="M357.403,218.335H138.14c-4.143,0-7.5,3.358-7.5,7.5c0,4.142,3.357,7.5,7.5,7.5h219.263c4.143,0,7.5-3.358,7.5-7.5
				C364.903,221.693,361.545,218.335,357.403,218.335z"/>
			<path d="M359.386,182.168c0-4.142-3.357-7.5-7.5-7.5H92.114c-4.143,0-7.5,3.358-7.5,7.5c0,4.142,3.357,7.5,7.5,7.5h259.771
				C356.029,189.668,359.386,186.31,359.386,182.168z"/>
			<path d="M346.35,138.501c0-4.142-3.357-7.5-7.5-7.5H64.487c-4.143,0-7.5,3.358-7.5,7.5c0,4.142,3.357,7.5,7.5,7.5H338.85
				C342.992,146.001,346.35,142.643,346.35,138.501z"/>
			<path d="M54.458,58.668H310.85c4.143,0,7.5-3.358,7.5-7.5c0-4.142-3.357-7.5-7.5-7.5H54.458c-4.143,0-7.5,3.358-7.5,7.5
				C46.958,55.31,50.316,58.668,54.458,58.668z"/>
			<path d="M247.006,94.835c0-4.142-3.357-7.5-7.5-7.5H50.598c-4.143,0-7.5,3.358-7.5,7.5c0,4.142,3.357,7.5,7.5,7.5h188.908
				C243.649,102.335,247.006,98.977,247.006,94.835z"/>
			<path d="M330.028,87.335h-46.122c-4.143,0-7.5,3.358-7.5,7.5c0,4.142,3.357,7.5,7.5,7.5h46.122c4.143,0,7.5-3.358,7.5-7.5
				C337.528,90.693,334.17,87.335,330.028,87.335z"/>
			<path d="M256.683,100.14c4.115,3.992,11.146,2.092,12.578-3.482c1.343-5.233-3.441-10.226-8.72-9.18
				c0.367-0.073,1.992-0.401-0.018,0.002c-0.07,0.015-0.062,0.013-0.014,0.004C254.72,88.701,252.585,95.921,256.683,100.14z"/>
			<path d="M68.88,15.001h37.525c4.143,0,7.5-3.358,7.5-7.5s-3.357-7.5-7.5-7.5H68.88c-4.143,0-7.5,3.358-7.5,7.5
				S64.737,15.001,68.88,15.001z"/>
			<path d="M148.905,15.001H329.86c4.143,0,7.5-3.358,7.5-7.5s-3.357-7.5-7.5-7.5H148.905c-4.143,0-7.5,3.358-7.5,7.5
				S144.763,15.001,148.905,15.001z"/>
			<path d="M123.428,13.72c-0.092-0.061-0.163-0.108,0.025,0.02c0.184,0.122,0.118,0.076,0.028,0.016
				c2.667,1.743,6.272,1.623,8.779-0.367c2.599-2.063,3.554-5.686,2.283-8.759c-1.195-2.888-4.167-4.774-7.293-4.621
				c-3.036,0.149-5.733,2.193-6.724,5.057C119.422,8.255,120.668,11.818,123.428,13.72z"/>
			<path d="M230.205,269.501c0-4.142-3.357-7.5-7.5-7.5h-48.93c-4.143,0-7.5,3.358-7.5,7.5c0,4.142,3.357,7.5,7.5,7.5h48.93
				C226.848,277.001,230.205,273.643,230.205,269.501z"/>
			<path d="M343.876,262.001H269.49c-4.143,0-7.5,3.358-7.5,7.5c0,4.142,3.357,7.5,7.5,7.5h74.386c4.143,0,7.5-3.358,7.5-7.5
				C351.376,265.359,348.019,262.001,343.876,262.001z"/>
			<path d="M251.93,274.46c2.041-2.318,2.452-5.767,0.988-8.494c-1.511-2.816-4.739-4.402-7.893-3.849
				c-3.166,0.556-5.648,3.112-6.138,6.285c-0.515,3.339,1.397,6.656,4.471,7.993c-0.071-0.028-0.095-0.036,0.075,0.035
				c0.196,0.077,0.141,0.053,0.051,0.016C246.432,277.576,249.823,276.852,251.93,274.46z"/>
		</g>
	</g>
</g>
<g>
</g>
<g>
</g>
<g>
</g>
<g>
</g>
<g>
</g>
<g>
</g>
<g>
</g>
<g>
</g>
<g>
</g>
<g>
</g>
<g>
</g>
<g>
</g>
<g>
</g>
<g>
</g>
<g>
</g>
</svg>
